{
    "asset": {
        "version": "1.0",
        "generator": "Open Asset Import Library (assimp v5.4.0)"
    },
    "accessors": {
        "meshes[0]_accessor": {
            "bufferView": "meshes[0]_view",
            "byteOffset": 0,
            "byteStride": 0,
            "componentType": 5126,
            "count": 1375,
            "type": "VEC3",
            "max": [
                2.416064977645874,
                3.8144938945770264,
                2.027061939239502
            ],
            "min": [
                -2.416064977645874,
                -0.005499000195413828,
                -2.027061939239502
            ]
        },
        "meshes[0]_accessor_0": {
            "bufferView": "meshes[0]_view_0",
            "byteOffset": 0,
            "byteStride": 0,
            "componentType": 5126,
            "count": 1375,
            "type": "VEC3",
            "max": [
                1.0,
                1.0,
                1.0
            ],
            "min": [
                -1.0,
                -1.0,
                -1.0
            ]
        },
        "meshes[0]_accessor_1": {
            "bufferView": "meshes[0]_view_1",
            "byteOffset": 0,
            "byteStride": 0,
            "componentType": 5126,
            "count": 1375,
            "type": "VEC2",
            "max": [
                0.9933130145072937,
                0.9976940155029297
            ],
            "min": [
                0.0061980001628398895,
                0.0029399991035461426
            ]
        },
        "meshes[0]_accessor_2": {
            "bufferView": "meshes[0]_view_2",
            "byteOffset": 0,
            "byteStride": 0,
            "componentType": 5123,
            "count": 2229,
            "type": "SCALAR",
            "max": [
                1374
            ],
            "min": [
                0
            ]
        }
    },
    "buffers": {
        "Camera_0": {
            "byteLength": 48458,
            "type": "arraybuffer",
            "uri": "Camera_0.bin"
        }
    },
    "bufferViews": {
        "meshes[0]_view": {
            "buffer": "Camera_0",
            "byteOffset": 0,
            "byteLength": 16500,
            "target": 34962
        },
        "meshes[0]_view_0": {
            "buffer": "Camera_0",
            "byteOffset": 16500,
            "byteLength": 16500,
            "target": 34962
        },
        "meshes[0]_view_1": {
            "buffer": "Camera_0",
            "byteOffset": 33000,
            "byteLength": 11000,
            "target": 34962
        },
        "meshes[0]_view_2": {
            "buffer": "Camera_0",
            "byteOffset": 44000,
            "byteLength": 4458,
            "target": 34963
        }
    },
    "images": {
        "image": {
            "uri": "textures/image_0.png"
        }
    },
    "materials": {
        "Camera_mat1": {
            "values": {
                "ambient": [
                    0.0,
                    0.0,
                    0.0,
                    1.0
                ],
                "diffuse": "texture",
                "specular": [
                    0.0,
                    0.0,
                    0.0,
                    1.0
                ],
                "emission": [
                    0.0,
                    0.0,
                    0.0,
                    1.0
                ],
                "shininess": 0.0
            }
        }
    },
    "meshes": {
        "meshes[0]": {
            "name": "",
            "primitives": [
                {
                    "mode": 4,
                    "material": "Camera_mat1",
                    "indices": "meshes[0]_accessor_2",
                    "attributes": {
                        "POSITION": "meshes[0]_accessor",
                        "NORMAL": "meshes[0]_accessor_0",
                        "TEXCOORD_0": "meshes[0]_accessor_1"
                    }
                }
            ]
        }
    },
    "nodes": {
        "Camera": {
            "children": [
                "Camera_mesh"
            ]
        },
        "Camera_mesh": {
            "meshes": [
                "meshes[0]"
            ]
        }
    },
    "samplers": {
        "sampler": {
            "wrapS": 10497,
            "wrapT": 10497,
            "magFilter": 9729,
            "minFilter": 9729
        }
    },
    "scenes": {
        "defaultScene": {
            "nodes": [
                "Camera"
            ]
        }
    },
    "textures": {
        "texture": {
            "source": "image",
            "sampler": "sampler"
        }
    },
    "scene": "defaultScene"
}