{
    "asset": {
        "version": "1.0",
        "generator": "Open Asset Import Library (assimp v5.4.0)"
    },
    "accessors": {
        "meshes[0]_accessor": {
            "bufferView": "meshes[0]_view",
            "byteOffset": 0,
            "byteStride": 0,
            "componentType": 5126,
            "count": 61,
            "type": "VEC3",
            "max": [
                0.33494800329208374,
                0.3867560029029846,
                -5.46133279800415
            ],
            "min": [
                -0.33494800329208374,
                -0.3867560029029846,
                -6.112792015075684
            ]
        },
        "meshes[0]_accessor_0": {
            "bufferView": "meshes[0]_view_0",
            "byteOffset": 0,
            "byteStride": 0,
            "componentType": 5126,
            "count": 61,
            "type": "VEC3",
            "max": [
                1.0,
                0.8693826198577881,
                0.000006231667612155434
            ],
            "min": [
                -1.0,
                -0.868358850479126,
                -1.0
            ]
        },
        "meshes[0]_accessor_1": {
            "bufferView": "meshes[0]_view_1",
            "byteOffset": 0,
            "byteStride": 0,
            "componentType": 5126,
            "count": 61,
            "type": "VEC2",
            "max": [
                0.65625,
                1.0
            ],
            "min": [
                0.34375,
                0.6875
            ]
        },
        "meshes[0]_accessor_2": {
            "bufferView": "meshes[0]_view_2",
            "byteOffset": 0,
            "byteStride": 0,
            "componentType": 5123,
            "count": 324,
            "type": "SCALAR",
            "max": [
                60
            ],
            "min": [
                0
            ]
        },
        "meshes[1]_accessor": {
            "bufferView": "meshes[1]_view",
            "byteOffset": 0,
            "byteStride": 0,
            "componentType": 5126,
            "count": 74,
            "type": "VEC3",
            "max": [
                0.3356510102748871,
                0.38731300830841064,
                4.484889030456543
            ],
            "min": [
                -0.3356510102748871,
                -0.38731399178504944,
                -5.121936798095703
            ]
        },
        "meshes[1]_accessor_0": {
            "bufferView": "meshes[1]_view_0",
            "byteOffset": 0,
            "byteStride": 0,
            "componentType": 5126,
            "count": 74,
            "type": "VEC3",
            "max": [
                1.0,
                0.868931770324707,
                0.00002758158734650351
            ],
            "min": [
                -1.0,
                -0.8689273595809937,
                -1.0651273640860381e-7
            ]
        },
        "meshes[1]_accessor_1": {
            "bufferView": "meshes[1]_view_1",
            "byteOffset": 0,
            "byteStride": 0,
            "componentType": 5126,
            "count": 74,
            "type": "VEC2",
            "max": [
                0.65625,
                1.0
            ],
            "min": [
                0.34375,
                0.3115600347518921
            ]
        },
        "meshes[1]_accessor_2": {
            "bufferView": "meshes[1]_view_2",
            "byteOffset": 0,
            "byteStride": 0,
            "componentType": 5123,
            "count": 216,
            "type": "SCALAR",
            "max": [
                73
            ],
            "min": [
                0
            ]
        },
        "meshes[2]_accessor": {
            "bufferView": "meshes[2]_view",
            "byteOffset": 0,
            "byteStride": 0,
            "componentType": 5126,
            "count": 24,
            "type": "VEC3",
            "max": [
                0.33494099974632263,
                0.3867560029029846,
                5.737743854522705
            ],
            "min": [
                -0.33494099974632263,
                -0.3867560029029846,
                4.349462032318115
            ]
        },
        "meshes[2]_accessor_0": {
            "bufferView": "meshes[2]_view_0",
            "byteOffset": 0,
            "byteStride": 0,
            "componentType": 5126,
            "count": 24,
            "type": "VEC3",
            "max": [
                0.9751994013786316,
                0.9448615312576294,
                0.19222259521484375
            ],
            "min": [
                -0.9751994013786316,
                -0.9448615312576294,
                0.177880197763443
            ]
        },
        "meshes[2]_accessor_1": {
            "bufferView": "meshes[2]_view_1",
            "byteOffset": 0,
            "byteStride": 0,
            "componentType": 5126,
            "count": 24,
            "type": "VEC2",
            "max": [
                0.65625,
                0.3125
            ],
            "min": [
                0.34375,
                0.0
            ]
        },
        "meshes[2]_accessor_2": {
            "bufferView": "meshes[2]_view_2",
            "byteOffset": 0,
            "byteStride": 0,
            "componentType": 5123,
            "count": 72,
            "type": "SCALAR",
            "max": [
                23
            ],
            "min": [
                0
            ]
        },
        "meshes[3]_accessor": {
            "bufferView": "meshes[3]_view",
            "byteOffset": 0,
            "byteStride": 0,
            "componentType": 5126,
            "count": 13,
            "type": "VEC3",
            "max": [
                0.10209500044584274,
                0.10345300287008286,
                6.112791061401367
            ],
            "min": [
                -0.10209500044584274,
                -0.10345300287008286,
                5.737425804138184
            ]
        },
        "meshes[3]_accessor_0": {
            "bufferView": "meshes[3]_view_0",
            "byteOffset": 0,
            "byteStride": 0,
            "componentType": 5126,
            "count": 13,
            "type": "VEC3",
            "max": [
                0.9401015639305115,
                0.9282032251358032,
                0.25603556632995605
            ],
            "min": [
                -0.9401015639305115,
                -0.9282032251358032,
                0.25569671392440796
            ]
        },
        "meshes[3]_accessor_1": {
            "bufferView": "meshes[3]_view_1",
            "byteOffset": 0,
            "byteStride": 0,
            "componentType": 5126,
            "count": 13,
            "type": "VEC2",
            "max": [
                0.5525799989700317,
                0.22002100944519043
            ],
            "min": [
                0.44742000102996826,
                0.10018599033355713
            ]
        },
        "meshes[3]_accessor_2": {
            "bufferView": "meshes[3]_view_2",
            "byteOffset": 0,
            "byteStride": 0,
            "componentType": 5123,
            "count": 36,
            "type": "SCALAR",
            "max": [
                12
            ],
            "min": [
                0
            ]
        },
        "meshes[4]_accessor": {
            "bufferView": "meshes[4]_view",
            "byteOffset": 0,
            "byteStride": 0,
            "componentType": 5126,
            "count": 192,
            "type": "VEC3",
            "max": [
                0.3446800112724304,
                0.39520201086997986,
                -3.785262107849121
            ],
            "min": [
                -0.3446800112724304,
                -0.39520299434661865,
                -5.461335182189941
            ]
        },
        "meshes[4]_accessor_0": {
            "bufferView": "meshes[4]_view_0",
            "byteOffset": 0,
            "byteStride": 0,
            "componentType": 5126,
            "count": 192,
            "type": "VEC3",
            "max": [
                0.9999246001243591,
                0.8743447661399841,
                1.0
            ],
            "min": [
                -0.9999251961708069,
                -0.8743361234664917,
                -1.0
            ]
        },
        "meshes[4]_accessor_1": {
            "bufferView": "meshes[4]_view_1",
            "byteOffset": 0,
            "byteStride": 0,
            "componentType": 5126,
            "count": 192,
            "type": "VEC2",
            "max": [
                0.65625,
                1.0
            ],
            "min": [
                0.34375,
                0.6875
            ]
        },
        "meshes[4]_accessor_2": {
            "bufferView": "meshes[4]_view_2",
            "byteOffset": 0,
            "byteStride": 0,
            "componentType": 5123,
            "count": 648,
            "type": "SCALAR",
            "max": [
                191
            ],
            "min": [
                0
            ]
        }
    },
    "buffers": {
        "Pencil_0": {
            "byteLength": 14240,
            "type": "arraybuffer",
            "uri": "Pencil_0.bin"
        }
    },
    "bufferViews": {
        "meshes[0]_view": {
            "buffer": "Pencil_0",
            "byteOffset": 0,
            "byteLength": 732,
            "target": 34962
        },
        "meshes[0]_view_0": {
            "buffer": "Pencil_0",
            "byteOffset": 732,
            "byteLength": 732,
            "target": 34962
        },
        "meshes[0]_view_1": {
            "buffer": "Pencil_0",
            "byteOffset": 1464,
            "byteLength": 488,
            "target": 34962
        },
        "meshes[0]_view_2": {
            "buffer": "Pencil_0",
            "byteOffset": 1952,
            "byteLength": 648,
            "target": 34963
        },
        "meshes[1]_view": {
            "buffer": "Pencil_0",
            "byteOffset": 2600,
            "byteLength": 888,
            "target": 34962
        },
        "meshes[1]_view_0": {
            "buffer": "Pencil_0",
            "byteOffset": 3488,
            "byteLength": 888,
            "target": 34962
        },
        "meshes[1]_view_1": {
            "buffer": "Pencil_0",
            "byteOffset": 4376,
            "byteLength": 592,
            "target": 34962
        },
        "meshes[1]_view_2": {
            "buffer": "Pencil_0",
            "byteOffset": 4968,
            "byteLength": 432,
            "target": 34963
        },
        "meshes[2]_view": {
            "buffer": "Pencil_0",
            "byteOffset": 5400,
            "byteLength": 288,
            "target": 34962
        },
        "meshes[2]_view_0": {
            "buffer": "Pencil_0",
            "byteOffset": 5688,
            "byteLength": 288,
            "target": 34962
        },
        "meshes[2]_view_1": {
            "buffer": "Pencil_0",
            "byteOffset": 5976,
            "byteLength": 192,
            "target": 34962
        },
        "meshes[2]_view_2": {
            "buffer": "Pencil_0",
            "byteOffset": 6168,
            "byteLength": 144,
            "target": 34963
        },
        "meshes[3]_view": {
            "buffer": "Pencil_0",
            "byteOffset": 6312,
            "byteLength": 156,
            "target": 34962
        },
        "meshes[3]_view_0": {
            "buffer": "Pencil_0",
            "byteOffset": 6468,
            "byteLength": 156,
            "target": 34962
        },
        "meshes[3]_view_1": {
            "buffer": "Pencil_0",
            "byteOffset": 6624,
            "byteLength": 104,
            "target": 34962
        },
        "meshes[3]_view_2": {
            "buffer": "Pencil_0",
            "byteOffset": 6728,
            "byteLength": 72,
            "target": 34963
        },
        "meshes[4]_view": {
            "buffer": "Pencil_0",
            "byteOffset": 6800,
            "byteLength": 2304,
            "target": 34962
        },
        "meshes[4]_view_0": {
            "buffer": "Pencil_0",
            "byteOffset": 9104,
            "byteLength": 2304,
            "target": 34962
        },
        "meshes[4]_view_1": {
            "buffer": "Pencil_0",
            "byteOffset": 11408,
            "byteLength": 1536,
            "target": 34962
        },
        "meshes[4]_view_2": {
            "buffer": "Pencil_0",
            "byteOffset": 12944,
            "byteLength": 1296,
            "target": 34963
        }
    },
    "materials": {
        "lambert5SG": {
            "values": {
                "ambient": [
                    0.0,
                    0.0,
                    0.0,
                    1.0
                ],
                "diffuse": [
                    0.7099999785423279,
                    0.2199999988079071,
                    0.14000000059604645,
                    1.0
                ],
                "specular": [
                    0.0,
                    0.0,
                    0.0,
                    1.0
                ],
                "emission": [
                    0.0,
                    0.0,
                    0.0,
                    1.0
                ],
                "shininess": 0.0
            }
        },
        "lambert4SG": {
            "values": {
                "ambient": [
                    0.0,
                    0.0,
                    0.0,
                    1.0
                ],
                "diffuse": [
                    0.8899999856948853,
                    0.5099999904632568,
                    0.0,
                    1.0
                ],
                "specular": [
                    0.0,
                    0.0,
                    0.0,
                    1.0
                ],
                "emission": [
                    0.0,
                    0.0,
                    0.0,
                    1.0
                ],
                "shininess": 0.0
            }
        },
        "lambert6SG": {
            "values": {
                "ambient": [
                    0.0,
                    0.0,
                    0.0,
                    1.0
                ],
                "diffuse": [
                    0.5799999833106995,
                    0.3700000047683716,
                    0.1899999976158142,
                    1.0
                ],
                "specular": [
                    0.0,
                    0.0,
                    0.0,
                    1.0
                ],
                "emission": [
                    0.0,
                    0.0,
                    0.0,
                    1.0
                ],
                "shininess": 0.0
            }
        },
        "lambert7SG": {
            "values": {
                "ambient": [
                    0.0,
                    0.0,
                    0.0,
                    1.0
                ],
                "diffuse": [
                    0.009999999776482582,
                    0.009999999776482582,
                    0.009999999776482582,
                    1.0
                ],
                "specular": [
                    0.0,
                    0.0,
                    0.0,
                    1.0
                ],
                "emission": [
                    0.0,
                    0.0,
                    0.0,
                    1.0
                ],
                "shininess": 0.0
            }
        },
        "lambert2SG": {
            "values": {
                "ambient": [
                    0.0,
                    0.0,
                    0.0,
                    1.0
                ],
                "diffuse": [
                    0.0,
                    0.23999999463558197,
                    0.05999999865889549,
                    1.0
                ],
                "specular": [
                    0.0,
                    0.0,
                    0.0,
                    1.0
                ],
                "emission": [
                    0.0,
                    0.0,
                    0.0,
                    1.0
                ],
                "shininess": 0.0
            }
        }
    },
    "meshes": {
        "meshes[0]": {
            "name": "",
            "primitives": [
                {
                    "mode": 4,
                    "material": "lambert5SG",
                    "indices": "meshes[0]_accessor_2",
                    "attributes": {
                        "POSITION": "meshes[0]_accessor",
                        "NORMAL": "meshes[0]_accessor_0",
                        "TEXCOORD_0": "meshes[0]_accessor_1"
                    }
                }
            ]
        },
        "meshes[1]": {
            "name": "",
            "primitives": [
                {
                    "mode": 4,
                    "material": "lambert4SG",
                    "indices": "meshes[1]_accessor_2",
                    "attributes": {
                        "POSITION": "meshes[1]_accessor",
                        "NORMAL": "meshes[1]_accessor_0",
                        "TEXCOORD_0": "meshes[1]_accessor_1"
                    }
                }
            ]
        },
        "meshes[2]": {
            "name": "",
            "primitives": [
                {
                    "mode": 4,
                    "material": "lambert6SG",
                    "indices": "meshes[2]_accessor_2",
                    "attributes": {
                        "POSITION": "meshes[2]_accessor",
                        "NORMAL": "meshes[2]_accessor_0",
                        "TEXCOORD_0": "meshes[2]_accessor_1"
                    }
                }
            ]
        },
        "meshes[3]": {
            "name": "",
            "primitives": [
                {
                    "mode": 4,
                    "material": "lambert7SG",
                    "indices": "meshes[3]_accessor_2",
                    "attributes": {
                        "POSITION": "meshes[3]_accessor",
                        "NORMAL": "meshes[3]_accessor_0",
                        "TEXCOORD_0": "meshes[3]_accessor_1"
                    }
                }
            ]
        },
        "meshes[4]": {
            "name": "",
            "primitives": [
                {
                    "mode": 4,
                    "material": "lambert2SG",
                    "indices": "meshes[4]_accessor_2",
                    "attributes": {
                        "POSITION": "meshes[4]_accessor",
                        "NORMAL": "meshes[4]_accessor_0",
                        "TEXCOORD_0": "meshes[4]_accessor_1"
                    }
                }
            ]
        }
    },
    "nodes": {
        "Pencil": {
            "children": [
                "Node"
            ]
        },
        "Node": {
            "children": [
                "Node-Mesh",
                "Node-Mesh_1",
                "Node-Mesh_2",
                "Node-Mesh_3",
                "Node-Mesh_4"
            ]
        },
        "Node-Mesh": {
            "meshes": [
                "meshes[0]"
            ]
        },
        "Node-Mesh_1": {
            "meshes": [
                "meshes[1]"
            ]
        },
        "Node-Mesh_2": {
            "meshes": [
                "meshes[2]"
            ]
        },
        "Node-Mesh_3": {
            "meshes": [
                "meshes[3]"
            ]
        },
        "Node-Mesh_4": {
            "meshes": [
                "meshes[4]"
            ]
        }
    },
    "scenes": {
        "defaultScene": {
            "nodes": [
                "Pencil"
            ]
        }
    },
    "scene": "defaultScene"
}