{
    "asset": {
        "version": "1.0",
        "generator": "Open Asset Import Library (assimp v5.4.0)"
    },
    "accessors": {
        "meshes[0]_accessor": {
            "bufferView": "meshes[0]_view",
            "byteOffset": 0,
            "byteStride": 0,
            "componentType": 5126,
            "count": 131,
            "type": "VEC3",
            "max": [
                0.9654710292816162,
                0.023507000878453255,
                0.8265799880027771
            ],
            "min": [
                -0.6449220180511475,
                0.0,
                -0.6146280169487
            ]
        },
        "meshes[0]_accessor_0": {
            "bufferView": "meshes[0]_view_0",
            "byteOffset": 0,
            "byteStride": 0,
            "componentType": 5126,
            "count": 131,
            "type": "VEC3",
            "max": [
                0.9996764063835144,
                1.0,
                0.9999977350234985
            ],
            "min": [
                -0.9840145707130432,
                -1.0,
                -0.9992855191230774
            ]
        },
        "meshes[0]_accessor_1": {
            "bufferView": "meshes[0]_view_1",
            "byteOffset": 0,
            "byteStride": 0,
            "componentType": 5126,
            "count": 131,
            "type": "VEC2",
            "max": [
                1.0,
                1.0
            ],
            "min": [
                0.0,
                0.0
            ]
        },
        "meshes[0]_accessor_2": {
            "bufferView": "meshes[0]_view_2",
            "byteOffset": 0,
            "byteStride": 0,
            "componentType": 5123,
            "count": 540,
            "type": "SCALAR",
            "max": [
                130
            ],
            "min": [
                0
            ]
        },
        "meshes[1]_accessor": {
            "bufferView": "meshes[1]_view",
            "byteOffset": 0,
            "byteStride": 0,
            "componentType": 5126,
            "count": 39,
            "type": "VEC3",
            "max": [
                -0.009114000014960766,
                0.10057400166988373,
                -0.2386070042848587
            ],
            "min": [
                -0.14969199895858765,
                0.008910000324249268,
                -0.37247198820114136
            ]
        },
        "meshes[1]_accessor_0": {
            "bufferView": "meshes[1]_view_0",
            "byteOffset": 0,
            "byteStride": 0,
            "componentType": 5126,
            "count": 39,
            "type": "VEC3",
            "max": [
                0.8997804522514343,
                0.911878228187561,
                0.9441826939582825
            ],
            "min": [
                -0.9903216361999512,
                -0.9953931570053101,
                -0.9002867937088013
            ]
        },
        "meshes[1]_accessor_1": {
            "bufferView": "meshes[1]_view_1",
            "byteOffset": 0,
            "byteStride": 0,
            "componentType": 5126,
            "count": 39,
            "type": "VEC2",
            "max": [
                0.875,
                1.0
            ],
            "min": [
                0.125,
                0.0
            ]
        },
        "meshes[1]_accessor_2": {
            "bufferView": "meshes[1]_view_2",
            "byteOffset": 0,
            "byteStride": 0,
            "componentType": 5123,
            "count": 144,
            "type": "SCALAR",
            "max": [
                38
            ],
            "min": [
                0
            ]
        },
        "meshes[2]_accessor": {
            "bufferView": "meshes[2]_view",
            "byteOffset": 0,
            "byteStride": 0,
            "componentType": 5126,
            "count": 39,
            "type": "VEC3",
            "max": [
                0.8019300103187561,
                0.10057400166988373,
                -0.3034909963607788
            ],
            "min": [
                0.6613519787788391,
                0.008910000324249268,
                -0.43735599517822266
            ]
        },
        "meshes[2]_accessor_0": {
            "bufferView": "meshes[2]_view_0",
            "byteOffset": 0,
            "byteStride": 0,
            "componentType": 5126,
            "count": 39,
            "type": "VEC3",
            "max": [
                0.8997778296470642,
                0.9118877053260803,
                0.9441763758659363
            ],
            "min": [
                -0.990321695804596,
                -0.9953932166099548,
                -0.9002847671508789
            ]
        },
        "meshes[2]_accessor_1": {
            "bufferView": "meshes[2]_view_1",
            "byteOffset": 0,
            "byteStride": 0,
            "componentType": 5126,
            "count": 39,
            "type": "VEC2",
            "max": [
                0.875,
                1.0
            ],
            "min": [
                0.125,
                0.0
            ]
        },
        "meshes[2]_accessor_2": {
            "bufferView": "meshes[2]_view_2",
            "byteOffset": 0,
            "byteStride": 0,
            "componentType": 5123,
            "count": 144,
            "type": "SCALAR",
            "max": [
                38
            ],
            "min": [
                0
            ]
        },
        "meshes[3]_accessor": {
            "bufferView": "meshes[3]_view",
            "byteOffset": 0,
            "byteStride": 0,
            "componentType": 5126,
            "count": 39,
            "type": "VEC3",
            "max": [
                0.19733299314975739,
                0.10057400166988373,
                0.7198989987373352
            ],
            "min": [
                0.05675499886274338,
                0.008910000324249268,
                0.5860350131988525
            ]
        },
        "meshes[3]_accessor_0": {
            "bufferView": "meshes[3]_view_0",
            "byteOffset": 0,
            "byteStride": 0,
            "componentType": 5126,
            "count": 39,
            "type": "VEC3",
            "max": [
                0.8997779488563538,
                0.9118907451629639,
                0.9441704154014587
            ],
            "min": [
                -0.9903221726417542,
                -0.9953932166099548,
                -0.9002997875213623
            ]
        },
        "meshes[3]_accessor_1": {
            "bufferView": "meshes[3]_view_1",
            "byteOffset": 0,
            "byteStride": 0,
            "componentType": 5126,
            "count": 39,
            "type": "VEC2",
            "max": [
                0.875,
                1.0
            ],
            "min": [
                0.125,
                0.0
            ]
        },
        "meshes[3]_accessor_2": {
            "bufferView": "meshes[3]_view_2",
            "byteOffset": 0,
            "byteStride": 0,
            "componentType": 5123,
            "count": 144,
            "type": "SCALAR",
            "max": [
                38
            ],
            "min": [
                0
            ]
        },
        "meshes[4]_accessor": {
            "bufferView": "meshes[4]_view",
            "byteOffset": 0,
            "byteStride": 0,
            "componentType": 5126,
            "count": 39,
            "type": "VEC3",
            "max": [
                -0.0946429967880249,
                0.10057400166988373,
                0.663864016532898
            ],
            "min": [
                -0.2352209985256195,
                0.008910000324249268,
                0.5299990177154541
            ]
        },
        "meshes[4]_accessor_0": {
            "bufferView": "meshes[4]_view_0",
            "byteOffset": 0,
            "byteStride": 0,
            "componentType": 5126,
            "count": 39,
            "type": "VEC3",
            "max": [
                0.8997804522514343,
                0.9118809700012207,
                0.9441910982131958
            ],
            "min": [
                -0.9903222322463989,
                -0.9953931570053101,
                -0.9002875089645386
            ]
        },
        "meshes[4]_accessor_1": {
            "bufferView": "meshes[4]_view_1",
            "byteOffset": 0,
            "byteStride": 0,
            "componentType": 5126,
            "count": 39,
            "type": "VEC2",
            "max": [
                0.875,
                1.0
            ],
            "min": [
                0.125,
                0.0
            ]
        },
        "meshes[4]_accessor_2": {
            "bufferView": "meshes[4]_view_2",
            "byteOffset": 0,
            "byteStride": 0,
            "componentType": 5123,
            "count": 144,
            "type": "SCALAR",
            "max": [
                38
            ],
            "min": [
                0
            ]
        },
        "meshes[5]_accessor": {
            "bufferView": "meshes[5]_view",
            "byteOffset": 0,
            "byteStride": 0,
            "componentType": 5126,
            "count": 39,
            "type": "VEC3",
            "max": [
                -0.3364810049533844,
                0.10057400166988373,
                0.4603649973869324
            ],
            "min": [
                -0.477059006690979,
                0.008910000324249268,
                0.3264999985694885
            ]
        },
        "meshes[5]_accessor_0": {
            "bufferView": "meshes[5]_view_0",
            "byteOffset": 0,
            "byteStride": 0,
            "componentType": 5126,
            "count": 39,
            "type": "VEC3",
            "max": [
                0.8997780084609985,
                0.9118881821632385,
                0.9441761374473572
            ],
            "min": [
                -0.990321695804596,
                -0.9953932166099548,
                -0.900284469127655
            ]
        },
        "meshes[5]_accessor_1": {
            "bufferView": "meshes[5]_view_1",
            "byteOffset": 0,
            "byteStride": 0,
            "componentType": 5126,
            "count": 39,
            "type": "VEC2",
            "max": [
                0.875,
                1.0
            ],
            "min": [
                0.125,
                0.0
            ]
        },
        "meshes[5]_accessor_2": {
            "bufferView": "meshes[5]_view_2",
            "byteOffset": 0,
            "byteStride": 0,
            "componentType": 5123,
            "count": 144,
            "type": "SCALAR",
            "max": [
                38
            ],
            "min": [
                0
            ]
        },
        "meshes[6]_accessor": {
            "bufferView": "meshes[6]_view",
            "byteOffset": 0,
            "byteStride": 0,
            "componentType": 5126,
            "count": 39,
            "type": "VEC3",
            "max": [
                -0.2568509876728058,
                0.10057400166988373,
                -0.07934799790382385
            ],
            "min": [
                -0.3974289894104004,
                0.008910000324249268,
                -0.2132129967212677
            ]
        },
        "meshes[6]_accessor_0": {
            "bufferView": "meshes[6]_view_0",
            "byteOffset": 0,
            "byteStride": 0,
            "componentType": 5126,
            "count": 39,
            "type": "VEC3",
            "max": [
                0.8997777104377747,
                0.9118878245353699,
                0.9441761374473572
            ],
            "min": [
                -0.9903217554092407,
                -0.9953932166099548,
                -0.9002850651741028
            ]
        },
        "meshes[6]_accessor_1": {
            "bufferView": "meshes[6]_view_1",
            "byteOffset": 0,
            "byteStride": 0,
            "componentType": 5126,
            "count": 39,
            "type": "VEC2",
            "max": [
                0.875,
                1.0
            ],
            "min": [
                0.125,
                0.0
            ]
        },
        "meshes[6]_accessor_2": {
            "bufferView": "meshes[6]_view_2",
            "byteOffset": 0,
            "byteStride": 0,
            "componentType": 5123,
            "count": 144,
            "type": "SCALAR",
            "max": [
                38
            ],
            "min": [
                0
            ]
        },
        "meshes[7]_accessor": {
            "bufferView": "meshes[7]_view",
            "byteOffset": 0,
            "byteStride": 0,
            "componentType": 5126,
            "count": 39,
            "type": "VEC3",
            "max": [
                -0.4043140113353729,
                0.10057400166988373,
                0.17723700404167175
            ],
            "min": [
                -0.5448920130729675,
                0.008910000324249268,
                0.04337200149893761
            ]
        },
        "meshes[7]_accessor_0": {
            "bufferView": "meshes[7]_view_0",
            "byteOffset": 0,
            "byteStride": 0,
            "componentType": 5126,
            "count": 39,
            "type": "VEC3",
            "max": [
                0.8997780084609985,
                0.9118802547454834,
                0.9441725015640259
            ],
            "min": [
                -0.9903217554092407,
                -0.9953932166099548,
                -0.900286853313446
            ]
        },
        "meshes[7]_accessor_1": {
            "bufferView": "meshes[7]_view_1",
            "byteOffset": 0,
            "byteStride": 0,
            "componentType": 5126,
            "count": 39,
            "type": "VEC2",
            "max": [
                0.875,
                1.0
            ],
            "min": [
                0.125,
                0.0
            ]
        },
        "meshes[7]_accessor_2": {
            "bufferView": "meshes[7]_view_2",
            "byteOffset": 0,
            "byteStride": 0,
            "componentType": 5123,
            "count": 144,
            "type": "SCALAR",
            "max": [
                38
            ],
            "min": [
                0
            ]
        },
        "meshes[8]_accessor": {
            "bufferView": "meshes[8]_view",
            "byteOffset": 0,
            "byteStride": 0,
            "componentType": 5126,
            "count": 39,
            "type": "VEC3",
            "max": [
                0.2622169852256775,
                0.10057400166988373,
                -0.33298298716545105
            ],
            "min": [
                0.12163899838924408,
                0.008910000324249268,
                -0.4668479859828949
            ]
        },
        "meshes[8]_accessor_0": {
            "bufferView": "meshes[8]_view_0",
            "byteOffset": 0,
            "byteStride": 0,
            "componentType": 5126,
            "count": 39,
            "type": "VEC3",
            "max": [
                0.8997806310653687,
                0.9118784666061401,
                0.9441826939582825
            ],
            "min": [
                -0.9903216361999512,
                -0.9953931570053101,
                -0.900286853313446
            ]
        },
        "meshes[8]_accessor_1": {
            "bufferView": "meshes[8]_view_1",
            "byteOffset": 0,
            "byteStride": 0,
            "componentType": 5126,
            "count": 39,
            "type": "VEC2",
            "max": [
                0.875,
                1.0
            ],
            "min": [
                0.125,
                0.0
            ]
        },
        "meshes[8]_accessor_2": {
            "bufferView": "meshes[8]_view_2",
            "byteOffset": 0,
            "byteStride": 0,
            "componentType": 5123,
            "count": 144,
            "type": "SCALAR",
            "max": [
                38
            ],
            "min": [
                0
            ]
        },
        "meshes[9]_accessor": {
            "bufferView": "meshes[9]_view",
            "byteOffset": 0,
            "byteStride": 0,
            "componentType": 5126,
            "count": 39,
            "type": "VEC3",
            "max": [
                0.5305989980697632,
                0.10057400166988373,
                -0.3683739900588989
            ],
            "min": [
                0.3900209963321686,
                0.008910000324249268,
                -0.5022389888763428
            ]
        },
        "meshes[9]_accessor_0": {
            "bufferView": "meshes[9]_view_0",
            "byteOffset": 0,
            "byteStride": 0,
            "componentType": 5126,
            "count": 39,
            "type": "VEC3",
            "max": [
                0.8997802734375,
                0.911878228187561,
                0.9441825151443481
            ],
            "min": [
                -0.9903216361999512,
                -0.9953930974006653,
                -0.9002871513366699
            ]
        },
        "meshes[9]_accessor_1": {
            "bufferView": "meshes[9]_view_1",
            "byteOffset": 0,
            "byteStride": 0,
            "componentType": 5126,
            "count": 39,
            "type": "VEC2",
            "max": [
                0.875,
                1.0
            ],
            "min": [
                0.125,
                0.0
            ]
        },
        "meshes[9]_accessor_2": {
            "bufferView": "meshes[9]_view_2",
            "byteOffset": 0,
            "byteStride": 0,
            "componentType": 5123,
            "count": 144,
            "type": "SCALAR",
            "max": [
                38
            ],
            "min": [
                0
            ]
        }
    },
    "buffers": {
        "Palette_0": {
            "byteLength": 19096,
            "type": "arraybuffer",
            "uri": "Palette_0.bin"
        }
    },
    "bufferViews": {
        "meshes[0]_view": {
            "buffer": "Palette_0",
            "byteOffset": 0,
            "byteLength": 1572,
            "target": 34962
        },
        "meshes[0]_view_0": {
            "buffer": "Palette_0",
            "byteOffset": 1572,
            "byteLength": 1572,
            "target": 34962
        },
        "meshes[0]_view_1": {
            "buffer": "Palette_0",
            "byteOffset": 3144,
            "byteLength": 1048,
            "target": 34962
        },
        "meshes[0]_view_2": {
            "buffer": "Palette_0",
            "byteOffset": 4192,
            "byteLength": 1080,
            "target": 34963
        },
        "meshes[1]_view": {
            "buffer": "Palette_0",
            "byteOffset": 5272,
            "byteLength": 468,
            "target": 34962
        },
        "meshes[1]_view_0": {
            "buffer": "Palette_0",
            "byteOffset": 5740,
            "byteLength": 468,
            "target": 34962
        },
        "meshes[1]_view_1": {
            "buffer": "Palette_0",
            "byteOffset": 6208,
            "byteLength": 312,
            "target": 34962
        },
        "meshes[1]_view_2": {
            "buffer": "Palette_0",
            "byteOffset": 6520,
            "byteLength": 288,
            "target": 34963
        },
        "meshes[2]_view": {
            "buffer": "Palette_0",
            "byteOffset": 6808,
            "byteLength": 468,
            "target": 34962
        },
        "meshes[2]_view_0": {
            "buffer": "Palette_0",
            "byteOffset": 7276,
            "byteLength": 468,
            "target": 34962
        },
        "meshes[2]_view_1": {
            "buffer": "Palette_0",
            "byteOffset": 7744,
            "byteLength": 312,
            "target": 34962
        },
        "meshes[2]_view_2": {
            "buffer": "Palette_0",
            "byteOffset": 8056,
            "byteLength": 288,
            "target": 34963
        },
        "meshes[3]_view": {
            "buffer": "Palette_0",
            "byteOffset": 8344,
            "byteLength": 468,
            "target": 34962
        },
        "meshes[3]_view_0": {
            "buffer": "Palette_0",
            "byteOffset": 8812,
            "byteLength": 468,
            "target": 34962
        },
        "meshes[3]_view_1": {
            "buffer": "Palette_0",
            "byteOffset": 9280,
            "byteLength": 312,
            "target": 34962
        },
        "meshes[3]_view_2": {
            "buffer": "Palette_0",
            "byteOffset": 9592,
            "byteLength": 288,
            "target": 34963
        },
        "meshes[4]_view": {
            "buffer": "Palette_0",
            "byteOffset": 9880,
            "byteLength": 468,
            "target": 34962
        },
        "meshes[4]_view_0": {
            "buffer": "Palette_0",
            "byteOffset": 10348,
            "byteLength": 468,
            "target": 34962
        },
        "meshes[4]_view_1": {
            "buffer": "Palette_0",
            "byteOffset": 10816,
            "byteLength": 312,
            "target": 34962
        },
        "meshes[4]_view_2": {
            "buffer": "Palette_0",
            "byteOffset": 11128,
            "byteLength": 288,
            "target": 34963
        },
        "meshes[5]_view": {
            "buffer": "Palette_0",
            "byteOffset": 11416,
            "byteLength": 468,
            "target": 34962
        },
        "meshes[5]_view_0": {
            "buffer": "Palette_0",
            "byteOffset": 11884,
            "byteLength": 468,
            "target": 34962
        },
        "meshes[5]_view_1": {
            "buffer": "Palette_0",
            "byteOffset": 12352,
            "byteLength": 312,
            "target": 34962
        },
        "meshes[5]_view_2": {
            "buffer": "Palette_0",
            "byteOffset": 12664,
            "byteLength": 288,
            "target": 34963
        },
        "meshes[6]_view": {
            "buffer": "Palette_0",
            "byteOffset": 12952,
            "byteLength": 468,
            "target": 34962
        },
        "meshes[6]_view_0": {
            "buffer": "Palette_0",
            "byteOffset": 13420,
            "byteLength": 468,
            "target": 34962
        },
        "meshes[6]_view_1": {
            "buffer": "Palette_0",
            "byteOffset": 13888,
            "byteLength": 312,
            "target": 34962
        },
        "meshes[6]_view_2": {
            "buffer": "Palette_0",
            "byteOffset": 14200,
            "byteLength": 288,
            "target": 34963
        },
        "meshes[7]_view": {
            "buffer": "Palette_0",
            "byteOffset": 14488,
            "byteLength": 468,
            "target": 34962
        },
        "meshes[7]_view_0": {
            "buffer": "Palette_0",
            "byteOffset": 14956,
            "byteLength": 468,
            "target": 34962
        },
        "meshes[7]_view_1": {
            "buffer": "Palette_0",
            "byteOffset": 15424,
            "byteLength": 312,
            "target": 34962
        },
        "meshes[7]_view_2": {
            "buffer": "Palette_0",
            "byteOffset": 15736,
            "byteLength": 288,
            "target": 34963
        },
        "meshes[8]_view": {
            "buffer": "Palette_0",
            "byteOffset": 16024,
            "byteLength": 468,
            "target": 34962
        },
        "meshes[8]_view_0": {
            "buffer": "Palette_0",
            "byteOffset": 16492,
            "byteLength": 468,
            "target": 34962
        },
        "meshes[8]_view_1": {
            "buffer": "Palette_0",
            "byteOffset": 16960,
            "byteLength": 312,
            "target": 34962
        },
        "meshes[8]_view_2": {
            "buffer": "Palette_0",
            "byteOffset": 17272,
            "byteLength": 288,
            "target": 34963
        },
        "meshes[9]_view": {
            "buffer": "Palette_0",
            "byteOffset": 17560,
            "byteLength": 468,
            "target": 34962
        },
        "meshes[9]_view_0": {
            "buffer": "Palette_0",
            "byteOffset": 18028,
            "byteLength": 468,
            "target": 34962
        },
        "meshes[9]_view_1": {
            "buffer": "Palette_0",
            "byteOffset": 18496,
            "byteLength": 312,
            "target": 34962
        },
        "meshes[9]_view_2": {
            "buffer": "Palette_0",
            "byteOffset": 18808,
            "byteLength": 288,
            "target": 34963
        }
    },
    "materials": {
        "lambert2SG": {
            "values": {
                "ambient": [
                    0.0,
                    0.0,
                    0.0,
                    1.0
                ],
                "diffuse": [
                    0.6600000262260437,
                    0.3199999928474426,
                    0.12999999523162842,
                    1.0
                ],
                "specular": [
                    0.0,
                    0.0,
                    0.0,
                    1.0
                ],
                "emission": [
                    0.0,
                    0.0,
                    0.0,
                    1.0
                ],
                "shininess": 0.0
            }
        },
        "lambert3SG": {
            "values": {
                "ambient": [
                    0.0,
                    0.0,
                    0.0,
                    1.0
                ],
                "diffuse": [
                    0.15000000596046448,
                    0.05000000074505806,
                    0.18000000715255737,
                    1.0
                ],
                "specular": [
                    0.0,
                    0.0,
                    0.0,
                    1.0
                ],
                "emission": [
                    0.0,
                    0.0,
                    0.0,
                    1.0
                ],
                "shininess": 0.0
            }
        },
        "lambert7SG": {
            "values": {
                "ambient": [
                    0.0,
                    0.0,
                    0.0,
                    1.0
                ],
                "diffuse": [
                    0.0,
                    0.0,
                    0.0,
                    1.0
                ],
                "specular": [
                    0.0,
                    0.0,
                    0.0,
                    1.0
                ],
                "emission": [
                    0.0,
                    0.0,
                    0.0,
                    1.0
                ],
                "shininess": 0.0
            }
        },
        "lambert11SG": {
            "values": {
                "ambient": [
                    0.0,
                    0.0,
                    0.0,
                    1.0
                ],
                "diffuse": [
                    0.3100000023841858,
                    0.009999999776482582,
                    0.009999999776482582,
                    1.0
                ],
                "specular": [
                    0.0,
                    0.0,
                    0.0,
                    1.0
                ],
                "emission": [
                    0.0,
                    0.0,
                    0.0,
                    1.0
                ],
                "shininess": 0.0
            }
        },
        "lambert10SG": {
            "values": {
                "ambient": [
                    0.0,
                    0.0,
                    0.0,
                    1.0
                ],
                "diffuse": [
                    1.0,
                    0.05999999865889549,
                    0.009999999776482582,
                    1.0
                ],
                "specular": [
                    0.0,
                    0.0,
                    0.0,
                    1.0
                ],
                "emission": [
                    0.0,
                    0.0,
                    0.0,
                    1.0
                ],
                "shininess": 0.0
            }
        },
        "lambert9SG": {
            "values": {
                "ambient": [
                    0.0,
                    0.0,
                    0.0,
                    1.0
                ],
                "diffuse": [
                    1.0,
                    1.0,
                    0.0,
                    1.0
                ],
                "specular": [
                    0.0,
                    0.0,
                    0.0,
                    1.0
                ],
                "emission": [
                    0.0,
                    0.0,
                    0.0,
                    1.0
                ],
                "shininess": 0.0
            }
        },
        "lambert5SG": {
            "values": {
                "ambient": [
                    0.0,
                    0.0,
                    0.0,
                    1.0
                ],
                "diffuse": [
                    0.019999999552965164,
                    0.07999999821186066,
                    0.4000000059604645,
                    1.0
                ],
                "specular": [
                    0.0,
                    0.0,
                    0.0,
                    1.0
                ],
                "emission": [
                    0.0,
                    0.0,
                    0.0,
                    1.0
                ],
                "shininess": 0.0
            }
        },
        "lambert8SG": {
            "values": {
                "ambient": [
                    0.0,
                    0.0,
                    0.0,
                    1.0
                ],
                "diffuse": [
                    0.0,
                    0.05000000074505806,
                    0.009999999776482582,
                    1.0
                ],
                "specular": [
                    0.0,
                    0.0,
                    0.0,
                    1.0
                ],
                "emission": [
                    0.0,
                    0.0,
                    0.0,
                    1.0
                ],
                "shininess": 0.0
            }
        },
        "lambert4SG": {
            "values": {
                "ambient": [
                    0.0,
                    0.0,
                    0.0,
                    1.0
                ],
                "diffuse": [
                    0.12999999523162842,
                    0.10999999940395355,
                    0.10000000149011612,
                    1.0
                ],
                "specular": [
                    0.0,
                    0.0,
                    0.0,
                    1.0
                ],
                "emission": [
                    0.0,
                    0.0,
                    0.0,
                    1.0
                ],
                "shininess": 0.0
            }
        },
        "lambert6SG": {
            "values": {
                "ambient": [
                    0.0,
                    0.0,
                    0.0,
                    1.0
                ],
                "diffuse": [
                    1.0,
                    1.0,
                    1.0,
                    1.0
                ],
                "specular": [
                    0.0,
                    0.0,
                    0.0,
                    1.0
                ],
                "emission": [
                    0.0,
                    0.0,
                    0.0,
                    1.0
                ],
                "shininess": 0.0
            }
        }
    },
    "meshes": {
        "meshes[0]": {
            "name": "",
            "primitives": [
                {
                    "mode": 4,
                    "material": "lambert2SG",
                    "indices": "meshes[0]_accessor_2",
                    "attributes": {
                        "POSITION": "meshes[0]_accessor",
                        "NORMAL": "meshes[0]_accessor_0",
                        "TEXCOORD_0": "meshes[0]_accessor_1"
                    }
                }
            ]
        },
        "meshes[1]": {
            "name": "",
            "primitives": [
                {
                    "mode": 4,
                    "material": "lambert3SG",
                    "indices": "meshes[1]_accessor_2",
                    "attributes": {
                        "POSITION": "meshes[1]_accessor",
                        "NORMAL": "meshes[1]_accessor_0",
                        "TEXCOORD_0": "meshes[1]_accessor_1"
                    }
                }
            ]
        },
        "meshes[2]": {
            "name": "",
            "primitives": [
                {
                    "mode": 4,
                    "material": "lambert7SG",
                    "indices": "meshes[2]_accessor_2",
                    "attributes": {
                        "POSITION": "meshes[2]_accessor",
                        "NORMAL": "meshes[2]_accessor_0",
                        "TEXCOORD_0": "meshes[2]_accessor_1"
                    }
                }
            ]
        },
        "meshes[3]": {
            "name": "",
            "primitives": [
                {
                    "mode": 4,
                    "material": "lambert11SG",
                    "indices": "meshes[3]_accessor_2",
                    "attributes": {
                        "POSITION": "meshes[3]_accessor",
                        "NORMAL": "meshes[3]_accessor_0",
                        "TEXCOORD_0": "meshes[3]_accessor_1"
                    }
                }
            ]
        },
        "meshes[4]": {
            "name": "",
            "primitives": [
                {
                    "mode": 4,
                    "material": "lambert10SG",
                    "indices": "meshes[4]_accessor_2",
                    "attributes": {
                        "POSITION": "meshes[4]_accessor",
                        "NORMAL": "meshes[4]_accessor_0",
                        "TEXCOORD_0": "meshes[4]_accessor_1"
                    }
                }
            ]
        },
        "meshes[5]": {
            "name": "",
            "primitives": [
                {
                    "mode": 4,
                    "material": "lambert9SG",
                    "indices": "meshes[5]_accessor_2",
                    "attributes": {
                        "POSITION": "meshes[5]_accessor",
                        "NORMAL": "meshes[5]_accessor_0",
                        "TEXCOORD_0": "meshes[5]_accessor_1"
                    }
                }
            ]
        },
        "meshes[6]": {
            "name": "",
            "primitives": [
                {
                    "mode": 4,
                    "material": "lambert5SG",
                    "indices": "meshes[6]_accessor_2",
                    "attributes": {
                        "POSITION": "meshes[6]_accessor",
                        "NORMAL": "meshes[6]_accessor_0",
                        "TEXCOORD_0": "meshes[6]_accessor_1"
                    }
                }
            ]
        },
        "meshes[7]": {
            "name": "",
            "primitives": [
                {
                    "mode": 4,
                    "material": "lambert8SG",
                    "indices": "meshes[7]_accessor_2",
                    "attributes": {
                        "POSITION": "meshes[7]_accessor",
                        "NORMAL": "meshes[7]_accessor_0",
                        "TEXCOORD_0": "meshes[7]_accessor_1"
                    }
                }
            ]
        },
        "meshes[8]": {
            "name": "",
            "primitives": [
                {
                    "mode": 4,
                    "material": "lambert4SG",
                    "indices": "meshes[8]_accessor_2",
                    "attributes": {
                        "POSITION": "meshes[8]_accessor",
                        "NORMAL": "meshes[8]_accessor_0",
                        "TEXCOORD_0": "meshes[8]_accessor_1"
                    }
                }
            ]
        },
        "meshes[9]": {
            "name": "",
            "primitives": [
                {
                    "mode": 4,
                    "material": "lambert6SG",
                    "indices": "meshes[9]_accessor_2",
                    "attributes": {
                        "POSITION": "meshes[9]_accessor",
                        "NORMAL": "meshes[9]_accessor_0",
                        "TEXCOORD_0": "meshes[9]_accessor_1"
                    }
                }
            ]
        }
    },
    "nodes": {
        "Palette": {
            "children": [
                "Node"
            ]
        },
        "Node": {
            "children": [
                "Node-Mesh",
                "Node-Mesh_1",
                "Node-Mesh_2",
                "Node-Mesh_3",
                "Node-Mesh_4",
                "Node-Mesh_5",
                "Node-Mesh_6",
                "Node-Mesh_7",
                "Node-Mesh_8",
                "Node-Mesh_9"
            ]
        },
        "Node-Mesh": {
            "meshes": [
                "meshes[0]"
            ]
        },
        "Node-Mesh_1": {
            "meshes": [
                "meshes[1]"
            ]
        },
        "Node-Mesh_2": {
            "meshes": [
                "meshes[2]"
            ]
        },
        "Node-Mesh_3": {
            "meshes": [
                "meshes[3]"
            ]
        },
        "Node-Mesh_4": {
            "meshes": [
                "meshes[4]"
            ]
        },
        "Node-Mesh_5": {
            "meshes": [
                "meshes[5]"
            ]
        },
        "Node-Mesh_6": {
            "meshes": [
                "meshes[6]"
            ]
        },
        "Node-Mesh_7": {
            "meshes": [
                "meshes[7]"
            ]
        },
        "Node-Mesh_8": {
            "meshes": [
                "meshes[8]"
            ]
        },
        "Node-Mesh_9": {
            "meshes": [
                "meshes[9]"
            ]
        }
    },
    "scenes": {
        "defaultScene": {
            "nodes": [
                "Palette"
            ]
        }
    },
    "scene": "defaultScene"
}