{
    "asset": {
        "version": "1.0",
        "generator": "Open Asset Import Library (assimp v5.4.0)"
    },
    "accessors": {
        "meshes[0]_accessor": {
            "bufferView": "meshes[0]_view",
            "byteOffset": 0,
            "byteStride": 0,
            "componentType": 5126,
            "count": 364,
            "type": "VEC3",
            "max": [
                1.7713019847869873,
                11.1417875289917,
                1.7713019847869873
            ],
            "min": [
                -1.7713019847869873,
                0.0,
                -1.7713019847869873
            ]
        },
        "meshes[0]_accessor_0": {
            "bufferView": "meshes[0]_view_0",
            "byteOffset": 0,
            "byteStride": 0,
            "componentType": 5126,
            "count": 364,
            "type": "VEC3",
            "max": [
                0.9270094037055969,
                0.9987840056419373,
                0.9986476302146912
            ],
            "min": [
                -0.9983200430870056,
                -1.0,
                -0.9270098805427551
            ]
        },
        "meshes[0]_accessor_1": {
            "bufferView": "meshes[0]_view_1",
            "byteOffset": 0,
            "byteStride": 0,
            "componentType": 5126,
            "count": 364,
            "type": "VEC2",
            "max": [
                0.9881370067596436,
                0.9859049916267395
            ],
            "min": [
                0.009556000120937824,
                0.03150397539138794
            ]
        },
        "meshes[0]_accessor_2": {
            "bufferView": "meshes[0]_view_2",
            "byteOffset": 0,
            "byteStride": 0,
            "componentType": 5123,
            "count": 552,
            "type": "SCALAR",
            "max": [
                363
            ],
            "min": [
                0
            ]
        }
    },
    "buffers": {
        "Microphone_0": {
            "byteLength": 12752,
            "type": "arraybuffer",
            "uri": "Microphone_0.bin"
        }
    },
    "bufferViews": {
        "meshes[0]_view": {
            "buffer": "Microphone_0",
            "byteOffset": 0,
            "byteLength": 4368,
            "target": 34962
        },
        "meshes[0]_view_0": {
            "buffer": "Microphone_0",
            "byteOffset": 4368,
            "byteLength": 4368,
            "target": 34962
        },
        "meshes[0]_view_1": {
            "buffer": "Microphone_0",
            "byteOffset": 8736,
            "byteLength": 2912,
            "target": 34962
        },
        "meshes[0]_view_2": {
            "buffer": "Microphone_0",
            "byteOffset": 11648,
            "byteLength": 1104,
            "target": 34963
        }
    },
    "images": {
        "image": {
            "uri": "textures/image_0.png"
        }
    },
    "materials": {
        "lambert2SG": {
            "values": {
                "ambient": [
                    0.0,
                    0.0,
                    0.0,
                    1.0
                ],
                "diffuse": "texture",
                "specular": [
                    0.0,
                    0.0,
                    0.0,
                    1.0
                ],
                "emission": [
                    0.0,
                    0.0,
                    0.0,
                    1.0
                ],
                "shininess": 0.0
            }
        }
    },
    "meshes": {
        "meshes[0]": {
            "name": "",
            "primitives": [
                {
                    "mode": 4,
                    "material": "lambert2SG",
                    "indices": "meshes[0]_accessor_2",
                    "attributes": {
                        "POSITION": "meshes[0]_accessor",
                        "NORMAL": "meshes[0]_accessor_0",
                        "TEXCOORD_0": "meshes[0]_accessor_1"
                    }
                }
            ]
        }
    },
    "nodes": {
        "Microphone": {
            "children": [
                "Microphone_mesh"
            ]
        },
        "Microphone_mesh": {
            "meshes": [
                "meshes[0]"
            ]
        }
    },
    "samplers": {
        "sampler": {
            "wrapS": 10497,
            "wrapT": 10497,
            "magFilter": 9729,
            "minFilter": 9729
        }
    },
    "scenes": {
        "defaultScene": {
            "nodes": [
                "Microphone"
            ]
        }
    },
    "textures": {
        "texture": {
            "source": "image",
            "sampler": "sampler"
        }
    },
    "scene": "defaultScene"
}